<svg xmlns="http://www.w3.org/2000/svg" xmlns:xlink="http://www.w3.org/1999/xlink" width="192" zoomAndPan="magnify" viewBox="0 0 144 143.999998" height="192" preserveAspectRatio="xMidYMid meet" version="1.0"><defs><clipPath id="a28917fb91"><path d="M 37.386719 47.652344 L 92.886719 47.652344 L 92.886719 103.152344 L 37.386719 103.152344 Z M 37.386719 47.652344 " clip-rule="nonzero"/></clipPath><clipPath id="4e291cc4d7"><path d="M 36 37 L 89 37 L 89 59 L 36 59 Z M 36 37 " clip-rule="nonzero"/></clipPath><clipPath id="7c18d74838"><path d="M 88.214844 48.617188 L 35.148438 58.617188 L 32.09375 42.402344 L 85.160156 32.402344 Z M 88.214844 48.617188 " clip-rule="nonzero"/></clipPath><clipPath id="e8748e1b97"><path d="M 90.230469 59.3125 L 37.164062 69.3125 L 32.164062 42.777344 L 85.230469 32.78125 Z M 90.230469 59.3125 " clip-rule="nonzero"/></clipPath><clipPath id="80d4893206"><path d="M 26 48 L 100 48 L 100 68 L 26 68 Z M 26 48 " clip-rule="nonzero"/></clipPath><clipPath id="49d51422b8"><path d="M 24.855469 55.644531 L 98.199219 44.085938 L 100.652344 59.644531 L 27.308594 71.203125 Z M 24.855469 55.644531 " clip-rule="nonzero"/></clipPath><clipPath id="d9230fc2d5"><path d="M 24.855469 55.644531 L 98.199219 44.085938 L 100.652344 59.644531 L 27.308594 71.203125 Z M 24.855469 55.644531 " clip-rule="nonzero"/></clipPath><clipPath id="3db1bdf9d3"><path d="M 37 43 L 89 43 L 89 60 L 37 60 Z M 37 43 " clip-rule="nonzero"/></clipPath><clipPath id="df937c1221"><path d="M 88.210938 51.726562 L 37.027344 59.359375 L 35.8125 51.199219 L 86.996094 43.566406 Z M 88.210938 51.726562 " clip-rule="nonzero"/></clipPath><clipPath id="b668bb5a22"><path d="M 89.15625 58.050781 L 37.972656 65.683594 L 34.097656 39.722656 L 85.28125 32.085938 Z M 89.15625 58.050781 " clip-rule="nonzero"/></clipPath><clipPath id="de71139fd3"><path d="M 38 48 L 87 48 L 87 63 L 38 63 Z M 38 48 " clip-rule="nonzero"/></clipPath><clipPath id="13c9f5ebb4"><path d="M 37.386719 52.949219 L 85.875 45.632812 L 87.789062 58.300781 L 39.296875 65.617188 Z M 37.386719 52.949219 " clip-rule="nonzero"/></clipPath><clipPath id="a706bf8af7"><path d="M 61.621094 49.292969 C 48.238281 51.3125 37.816406 55.785156 38.34375 59.285156 C 38.871094 62.78125 50.148438 63.980469 63.535156 61.960938 C 76.917969 59.941406 87.339844 55.46875 86.8125 51.96875 C 86.285156 48.472656 75.007812 47.273438 61.621094 49.292969 Z M 61.621094 49.292969 " clip-rule="nonzero"/></clipPath><clipPath id="ce7e4c1962"><path d="M 0 0 L 49 0 L 49 15 L 0 15 Z M 0 0 " clip-rule="nonzero"/></clipPath><clipPath id="bc5db7d07f"><path d="M -0.613281 4.949219 L 47.875 -2.367188 L 49.789062 10.300781 L 1.296875 17.617188 Z M -0.613281 4.949219 " clip-rule="nonzero"/></clipPath><clipPath id="fc80f2217f"><path d="M 23.621094 1.292969 C 10.238281 3.3125 -0.183594 7.785156 0.34375 11.285156 C 0.871094 14.78125 12.148438 15.980469 25.535156 13.960938 C 38.917969 11.941406 49.339844 7.46875 48.8125 3.96875 C 48.285156 0.472656 37.007812 -0.726562 23.621094 1.292969 Z M 23.621094 1.292969 " clip-rule="nonzero"/></clipPath><clipPath id="649d67df83"><rect x="0" width="49" y="0" height="15"/></clipPath><clipPath id="c6f7a5af58"><path d="M 39 42 L 83 42 L 83 56 L 39 56 Z M 39 42 " clip-rule="nonzero"/></clipPath><clipPath id="d408c2ef34"><path d="M 39.074219 46.230469 L 81.605469 39.8125 L 83.332031 51.238281 L 40.800781 57.652344 Z M 39.074219 46.230469 " clip-rule="nonzero"/></clipPath><clipPath id="491717ec99"><path d="M 60.328125 43.023438 C 48.589844 44.792969 39.460938 48.785156 39.9375 51.941406 C 40.414062 55.097656 50.316406 56.21875 62.054688 54.449219 C 73.789062 52.675781 82.921875 48.683594 82.445312 45.527344 C 81.96875 42.371094 72.066406 41.25 60.328125 43.023438 Z M 60.328125 43.023438 " clip-rule="nonzero"/></clipPath><clipPath id="a54e04db04"><path d="M 0.359375 0 L 44 0 L 44 14 L 0.359375 14 Z M 0.359375 0 " clip-rule="nonzero"/></clipPath><clipPath id="c00ce2789b"><path d="M 0.0742188 4.230469 L 42.605469 -2.1875 L 44.332031 9.238281 L 1.800781 15.652344 Z M 0.0742188 4.230469 " clip-rule="nonzero"/></clipPath><clipPath id="55129ce9ac"><path d="M 21.328125 1.023438 C 9.589844 2.792969 0.460938 6.785156 0.9375 9.941406 C 1.414062 13.097656 11.316406 14.21875 23.054688 12.449219 C 34.789062 10.675781 43.921875 6.683594 43.445312 3.527344 C 42.96875 0.371094 33.066406 -0.75 21.328125 1.023438 Z M 21.328125 1.023438 " clip-rule="nonzero"/></clipPath><clipPath id="0e2456c0df"><rect x="0" width="44" y="0" height="14"/></clipPath></defs><g clip-path="url(#a28917fb91)"><path fill="#f7ca4b" d="M 92.890625 75.402344 C 92.890625 76.3125 92.84375 77.21875 92.753906 78.121094 C 92.667969 79.027344 92.53125 79.925781 92.355469 80.816406 C 92.179688 81.707031 91.957031 82.589844 91.695312 83.457031 C 91.429688 84.328125 91.125 85.183594 90.777344 86.023438 C 90.429688 86.863281 90.039062 87.683594 89.613281 88.484375 C 89.183594 89.285156 88.71875 90.0625 88.210938 90.820312 C 87.707031 91.574219 87.167969 92.304688 86.589844 93.007812 C 86.011719 93.710938 85.402344 94.382812 84.761719 95.023438 C 84.117188 95.667969 83.445312 96.277344 82.742188 96.855469 C 82.039062 97.429688 81.3125 97.972656 80.554688 98.476562 C 79.800781 98.980469 79.023438 99.449219 78.21875 99.875 C 77.417969 100.304688 76.597656 100.691406 75.757812 101.039062 C 74.917969 101.386719 74.0625 101.695312 73.195312 101.957031 C 72.324219 102.222656 71.445312 102.441406 70.554688 102.621094 C 69.660156 102.796875 68.761719 102.929688 67.859375 103.019531 C 66.953125 103.109375 66.046875 103.152344 65.140625 103.152344 C 64.230469 103.152344 63.324219 103.109375 62.417969 103.019531 C 61.515625 102.929688 60.617188 102.796875 59.726562 102.621094 C 58.832031 102.441406 57.953125 102.222656 57.082031 101.957031 C 56.214844 101.695312 55.359375 101.386719 54.519531 101.039062 C 53.679688 100.691406 52.859375 100.304688 52.058594 99.875 C 51.257812 99.449219 50.476562 98.980469 49.722656 98.476562 C 48.964844 97.972656 48.238281 97.429688 47.535156 96.855469 C 46.832031 96.277344 46.160156 95.667969 45.515625 95.023438 C 44.875 94.382812 44.265625 93.710938 43.6875 93.007812 C 43.113281 92.304688 42.570312 91.574219 42.066406 90.820312 C 41.5625 90.0625 41.09375 89.285156 40.664062 88.484375 C 40.238281 87.683594 39.847656 86.863281 39.5 86.023438 C 39.152344 85.183594 38.847656 84.328125 38.585938 83.457031 C 38.320312 82.589844 38.097656 81.707031 37.921875 80.816406 C 37.746094 79.925781 37.613281 79.027344 37.523438 78.121094 C 37.433594 77.21875 37.390625 76.3125 37.390625 75.402344 C 37.390625 74.492188 37.433594 73.585938 37.523438 72.683594 C 37.613281 71.777344 37.746094 70.878906 37.921875 69.988281 C 38.097656 69.097656 38.320312 68.21875 38.585938 67.347656 C 38.847656 66.476562 39.152344 65.621094 39.5 64.785156 C 39.847656 63.945312 40.238281 63.121094 40.664062 62.320312 C 41.09375 61.519531 41.5625 60.742188 42.066406 59.984375 C 42.570312 59.230469 43.113281 58.5 43.6875 57.796875 C 44.265625 57.097656 44.875 56.421875 45.515625 55.78125 C 46.160156 55.136719 46.832031 54.527344 47.535156 53.953125 C 48.238281 53.375 48.964844 52.835938 49.722656 52.328125 C 50.476562 51.824219 51.257812 51.359375 52.058594 50.929688 C 52.859375 50.5 53.679688 50.113281 54.519531 49.765625 C 55.359375 49.417969 56.214844 49.113281 57.082031 48.847656 C 57.953125 48.582031 58.832031 48.363281 59.726562 48.1875 C 60.617188 48.007812 61.515625 47.875 62.417969 47.785156 C 63.324219 47.699219 64.230469 47.652344 65.140625 47.652344 C 66.046875 47.652344 66.953125 47.699219 67.859375 47.785156 C 68.761719 47.875 69.660156 48.007812 70.554688 48.1875 C 71.445312 48.363281 72.324219 48.582031 73.195312 48.847656 C 74.0625 49.113281 74.917969 49.417969 75.757812 49.765625 C 76.597656 50.113281 77.417969 50.5 78.21875 50.929688 C 79.023438 51.359375 79.800781 51.824219 80.554688 52.328125 C 81.3125 52.835938 82.039062 53.375 82.742188 53.953125 C 83.445312 54.527344 84.117188 55.136719 84.761719 55.78125 C 85.402344 56.421875 86.011719 57.097656 86.589844 57.796875 C 87.167969 58.5 87.707031 59.230469 88.210938 59.984375 C 88.71875 60.742188 89.183594 61.519531 89.613281 62.320312 C 90.039062 63.121094 90.429688 63.945312 90.777344 64.785156 C 91.125 65.621094 91.429688 66.476562 91.695312 67.347656 C 91.957031 68.21875 92.179688 69.097656 92.355469 69.988281 C 92.53125 70.878906 92.667969 71.777344 92.753906 72.683594 C 92.84375 73.585938 92.890625 74.492188 92.890625 75.402344 Z M 92.890625 75.402344 " fill-opacity="1" fill-rule="nonzero"/></g><path fill="#ebac33" d="M 89.011719 75.402344 C 89.011719 76.183594 88.972656 76.964844 88.898438 77.742188 C 88.820312 78.519531 88.707031 79.292969 88.554688 80.058594 C 88.398438 80.828125 88.210938 81.585938 87.984375 82.332031 C 87.757812 83.082031 87.492188 83.816406 87.195312 84.539062 C 86.894531 85.261719 86.5625 85.964844 86.191406 86.65625 C 85.824219 87.34375 85.421875 88.015625 84.988281 88.664062 C 84.554688 89.316406 84.089844 89.941406 83.59375 90.546875 C 83.097656 91.152344 82.570312 91.730469 82.019531 92.28125 C 81.464844 92.835938 80.886719 93.359375 80.285156 93.855469 C 79.679688 94.351562 79.050781 94.816406 78.402344 95.25 C 77.75 95.6875 77.082031 96.085938 76.390625 96.457031 C 75.703125 96.824219 74.996094 97.160156 74.273438 97.457031 C 73.550781 97.757812 72.816406 98.019531 72.070312 98.246094 C 71.320312 98.472656 70.5625 98.664062 69.796875 98.816406 C 69.03125 98.96875 68.257812 99.082031 67.480469 99.160156 C 66.699219 99.238281 65.921875 99.273438 65.140625 99.273438 C 64.355469 99.273438 63.578125 99.238281 62.800781 99.160156 C 62.019531 99.082031 61.25 98.96875 60.480469 98.816406 C 59.714844 98.664062 58.957031 98.472656 58.210938 98.246094 C 57.460938 98.019531 56.726562 97.757812 56.003906 97.457031 C 55.28125 97.160156 54.574219 96.824219 53.886719 96.457031 C 53.195312 96.085938 52.527344 95.6875 51.875 95.25 C 51.226562 94.816406 50.597656 94.351562 49.996094 93.855469 C 49.390625 93.359375 48.8125 92.835938 48.257812 92.28125 C 47.707031 91.730469 47.179688 91.152344 46.683594 90.546875 C 46.191406 89.941406 45.722656 89.316406 45.289062 88.664062 C 44.855469 88.015625 44.453125 87.34375 44.085938 86.65625 C 43.71875 85.964844 43.382812 85.261719 43.082031 84.539062 C 42.785156 83.816406 42.523438 83.082031 42.292969 82.332031 C 42.066406 81.585938 41.878906 80.828125 41.726562 80.058594 C 41.574219 79.292969 41.457031 78.519531 41.382812 77.742188 C 41.304688 76.964844 41.265625 76.183594 41.265625 75.402344 C 41.265625 74.621094 41.304688 73.839844 41.382812 73.0625 C 41.457031 72.285156 41.574219 71.511719 41.726562 70.746094 C 41.878906 69.980469 42.066406 69.222656 42.292969 68.472656 C 42.523438 67.726562 42.785156 66.988281 43.082031 66.265625 C 43.382812 65.542969 43.71875 64.839844 44.085938 64.148438 C 44.453125 63.460938 44.855469 62.789062 45.289062 62.140625 C 45.722656 61.488281 46.191406 60.863281 46.683594 60.257812 C 47.179688 59.652344 47.707031 59.074219 48.257812 58.523438 C 48.8125 57.96875 49.390625 57.445312 49.996094 56.949219 C 50.597656 56.453125 51.226562 55.988281 51.875 55.554688 C 52.527344 55.121094 53.195312 54.71875 53.886719 54.347656 C 54.574219 53.980469 55.28125 53.648438 56.003906 53.347656 C 56.726562 53.046875 57.460938 52.785156 58.210938 52.558594 C 58.957031 52.332031 59.714844 52.140625 60.480469 51.988281 C 61.25 51.835938 62.019531 51.722656 62.800781 51.644531 C 63.578125 51.570312 64.355469 51.53125 65.140625 51.53125 C 65.921875 51.53125 66.699219 51.570312 67.480469 51.644531 C 68.257812 51.722656 69.03125 51.835938 69.796875 51.988281 C 70.5625 52.140625 71.320312 52.332031 72.070312 52.558594 C 72.816406 52.785156 73.550781 53.046875 74.273438 53.347656 C 74.996094 53.648438 75.703125 53.980469 76.390625 54.347656 C 77.082031 54.71875 77.75 55.121094 78.402344 55.554688 C 79.050781 55.988281 79.679688 56.453125 80.285156 56.949219 C 80.886719 57.445312 81.464844 57.96875 82.019531 58.523438 C 82.570312 59.074219 83.097656 59.652344 83.59375 60.257812 C 84.089844 60.863281 84.554688 61.488281 84.988281 62.140625 C 85.421875 62.789062 85.824219 63.460938 86.191406 64.148438 C 86.5625 64.839844 86.894531 65.542969 87.195312 66.265625 C 87.492188 66.988281 87.757812 67.726562 87.984375 68.472656 C 88.210938 69.222656 88.398438 69.980469 88.554688 70.746094 C 88.707031 71.511719 88.820312 72.285156 88.898438 73.0625 C 88.972656 73.839844 89.011719 74.621094 89.011719 75.402344 Z M 89.011719 75.402344 " fill-opacity="1" fill-rule="nonzero"/><path fill="#e18e29" d="M 87.699219 83.644531 C 86.222656 82.285156 84.550781 81.242188 82.679688 80.515625 C 80.8125 79.789062 78.875 79.425781 76.867188 79.425781 C 68.019531 79.425781 60.847656 86.601562 60.847656 95.449219 C 60.847656 96.78125 61.011719 98.097656 61.335938 99.390625 C 62.597656 99.59375 63.863281 99.695312 65.140625 99.695312 C 75.582031 99.695312 84.460938 92.984375 87.699219 83.644531 Z M 87.699219 83.644531 " fill-opacity="1" fill-rule="nonzero"/><path fill="#be1e2d" d="M 65.140625 71.445312 L 66.425781 74.050781 L 69.300781 74.46875 L 67.21875 76.496094 L 67.710938 79.359375 L 65.140625 78.007812 L 62.566406 79.359375 L 63.058594 76.496094 L 60.976562 74.46875 L 63.851562 74.050781 Z M 65.140625 71.445312 " fill-opacity="1" fill-rule="nonzero"/><path fill="#ffffff" d="M 62.042969 53.597656 C 61.960938 53.582031 61.832031 53.539062 61.753906 53.566406 L 61.742188 53.566406 C 61.296875 53.234375 60.589844 53.414062 60.078125 53.539062 C 59.613281 53.652344 59.152344 53.828125 58.703125 53.992188 C 57.835938 54.308594 56.960938 54.625 56.09375 54.957031 C 55.1875 55.300781 54.28125 55.671875 53.4375 56.15625 C 52.675781 56.59375 51.96875 57.105469 51.316406 57.695312 C 50.09375 58.796875 49.074219 60.113281 48.148438 61.464844 C 47.925781 61.789062 47.792969 62.183594 47.636719 62.542969 C 47.460938 62.960938 47.242188 63.390625 47.128906 63.832031 C 47.085938 64.003906 47.035156 64.179688 46.996094 64.355469 C 46.9375 64.617188 46.964844 64.878906 47 65.140625 C 47.03125 65.355469 47.121094 65.59375 47.335938 65.6875 C 47.566406 65.785156 47.8125 65.6875 48.027344 65.59375 C 48.265625 65.492188 48.484375 65.355469 48.675781 65.179688 C 48.832031 65.035156 49.003906 64.898438 49.144531 64.738281 C 49.433594 64.417969 49.707031 64.082031 49.996094 63.757812 C 50.621094 63.066406 51.105469 62.269531 51.664062 61.523438 C 52.4375 60.546875 53.300781 59.648438 54.277344 58.871094 C 55.386719 58.042969 56.640625 57.457031 57.902344 56.894531 C 58.625 56.570312 59.359375 56.265625 60.074219 55.921875 C 60.429688 55.746094 60.785156 55.574219 61.121094 55.359375 C 61.519531 55.105469 61.972656 54.804688 62.046875 54.335938 C 62.054688 54.332031 62.058594 54.324219 62.0625 54.316406 C 62.136719 54.285156 62.203125 54.164062 62.242188 54.097656 C 62.359375 53.917969 62.25 53.648438 62.042969 53.597656 Z M 62.042969 53.597656 " fill-opacity="1" fill-rule="nonzero"/><path fill="#ffffff" d="M 45.476562 70.835938 C 45.492188 70.808594 45.5 70.785156 45.503906 70.757812 C 45.5 70.777344 45.488281 70.804688 45.476562 70.835938 Z M 45.476562 70.835938 " fill-opacity="1" fill-rule="nonzero"/><path fill="#ffffff" d="M 46.394531 68.644531 C 46.441406 68.207031 46.003906 67.910156 45.617188 67.925781 C 45.488281 67.90625 45.359375 67.902344 45.230469 67.945312 C 45.058594 68 44.910156 68.089844 44.785156 68.214844 C 44.695312 68.292969 44.613281 68.382812 44.53125 68.46875 C 44.324219 68.699219 44.148438 68.976562 43.992188 69.242188 C 43.621094 69.871094 43.054688 70.839844 43.726562 71.464844 C 44.253906 71.957031 45.03125 71.71875 45.351562 71.121094 C 45.363281 71.101562 45.433594 70.949219 45.476562 70.835938 C 45.46875 70.847656 45.472656 70.828125 45.503906 70.757812 C 45.507812 70.75 45.507812 70.746094 45.507812 70.742188 C 45.507812 70.746094 45.507812 70.75 45.503906 70.757812 L 45.503906 70.753906 C 45.554688 70.644531 45.609375 70.535156 45.664062 70.429688 C 45.78125 70.203125 45.917969 69.992188 46.054688 69.777344 C 46.117188 69.675781 46.171875 69.570312 46.234375 69.46875 C 46.300781 69.355469 46.371094 69.25 46.402344 69.117188 C 46.414062 69.03125 46.425781 68.949219 46.4375 68.863281 C 46.429688 68.597656 46.417969 68.527344 46.394531 68.644531 Z M 46.394531 68.644531 " fill-opacity="1" fill-rule="nonzero"/><g clip-path="url(#4e291cc4d7)"><g clip-path="url(#7c18d74838)"><g clip-path="url(#e8748e1b97)"><path fill="#ffeccf" d="M 37.09375 69.324219 L 37.070312 69.199219 C 36.394531 65.613281 36.441406 62.003906 37.210938 58.46875 C 37.953125 55.054688 39.332031 51.855469 41.3125 48.957031 C 43.289062 46.058594 45.769531 43.605469 48.679688 41.675781 C 51.691406 39.671875 55.039062 38.316406 58.625 37.640625 C 62.207031 36.964844 65.820312 37.011719 69.351562 37.777344 C 72.769531 38.519531 75.96875 39.898438 78.867188 41.878906 C 81.765625 43.859375 84.214844 46.335938 86.148438 49.25 C 88.148438 52.261719 89.507812 55.605469 90.183594 59.191406 L 90.207031 59.316406 Z M 37.09375 69.324219 " fill-opacity="1" fill-rule="nonzero"/></g></g></g><g clip-path="url(#80d4893206)"><g clip-path="url(#49d51422b8)"><g clip-path="url(#d9230fc2d5)"><path fill="#ffd9a0" d="M 99.207031 51.894531 C 99.246094 52.148438 99.226562 52.410156 99.148438 52.679688 C 99.070312 52.953125 98.9375 53.230469 98.742188 53.515625 C 98.546875 53.800781 98.296875 54.089844 97.984375 54.386719 C 97.675781 54.683594 97.3125 54.984375 96.890625 55.292969 C 96.46875 55.597656 95.992188 55.90625 95.464844 56.21875 C 94.933594 56.53125 94.351562 56.84375 93.722656 57.160156 C 93.089844 57.476562 92.410156 57.792969 91.679688 58.105469 C 90.949219 58.421875 90.175781 58.734375 89.359375 59.046875 C 88.539062 59.359375 87.679688 59.671875 86.78125 59.976562 C 85.878906 60.28125 84.941406 60.585938 83.96875 60.882812 C 82.996094 61.179688 81.992188 61.472656 80.953125 61.757812 C 79.917969 62.042969 78.851562 62.320312 77.761719 62.59375 C 76.667969 62.863281 75.558594 63.125 74.421875 63.382812 C 73.289062 63.636719 72.136719 63.878906 70.972656 64.113281 C 69.804688 64.347656 68.628906 64.570312 67.441406 64.785156 C 66.25 64.996094 65.058594 65.199219 63.863281 65.386719 C 62.664062 65.574219 61.46875 65.75 60.273438 65.914062 C 59.078125 66.078125 57.886719 66.226562 56.707031 66.363281 C 55.523438 66.496094 54.351562 66.617188 53.195312 66.726562 C 52.039062 66.832031 50.898438 66.925781 49.777344 67.003906 C 48.65625 67.082031 47.558594 67.144531 46.480469 67.191406 C 45.40625 67.238281 44.359375 67.269531 43.34375 67.285156 C 42.324219 67.300781 41.339844 67.300781 40.390625 67.285156 C 39.4375 67.273438 38.527344 67.242188 37.652344 67.195312 C 36.777344 67.152344 35.945312 67.089844 35.152344 67.015625 C 34.363281 66.9375 33.617188 66.847656 32.917969 66.742188 C 32.222656 66.636719 31.570312 66.515625 30.972656 66.382812 C 30.371094 66.246094 29.824219 66.101562 29.332031 65.9375 C 28.835938 65.777344 28.394531 65.601562 28.007812 65.414062 C 27.625 65.226562 27.292969 65.027344 27.019531 64.816406 C 26.75 64.605469 26.535156 64.382812 26.375 64.148438 C 26.21875 63.914062 26.121094 63.671875 26.082031 63.417969 C 26.042969 63.167969 26.058594 62.90625 26.136719 62.632812 C 26.214844 62.363281 26.351562 62.085938 26.546875 61.800781 C 26.742188 61.515625 26.992188 61.226562 27.300781 60.925781 C 27.613281 60.628906 27.976562 60.328125 28.398438 60.023438 C 28.820312 59.71875 29.296875 59.40625 29.824219 59.09375 C 30.355469 58.785156 30.933594 58.46875 31.566406 58.15625 C 32.199219 57.839844 32.878906 57.523438 33.609375 57.207031 C 34.335938 56.894531 35.109375 56.578125 35.929688 56.265625 C 36.746094 55.953125 37.605469 55.644531 38.507812 55.339844 C 39.40625 55.03125 40.34375 54.730469 41.316406 54.433594 C 42.292969 54.136719 43.296875 53.84375 44.335938 53.558594 C 45.371094 53.273438 46.4375 52.992188 47.527344 52.722656 C 48.617188 52.449219 49.730469 52.1875 50.863281 51.933594 C 52 51.679688 53.148438 51.4375 54.316406 51.203125 C 55.484375 50.96875 56.660156 50.742188 57.847656 50.53125 C 59.035156 50.316406 60.226562 50.117188 61.425781 49.929688 C 62.625 49.742188 63.820312 49.5625 65.015625 49.402344 C 66.210938 49.238281 67.398438 49.089844 68.582031 48.953125 C 69.765625 48.816406 70.933594 48.695312 72.09375 48.589844 C 73.25 48.480469 74.390625 48.390625 75.511719 48.3125 C 76.632812 48.234375 77.730469 48.171875 78.804688 48.125 C 79.878906 48.078125 80.925781 48.046875 81.945312 48.03125 C 82.960938 48.015625 83.945312 48.011719 84.898438 48.027344 C 85.847656 48.042969 86.761719 48.074219 87.636719 48.117188 C 88.511719 48.164062 89.34375 48.226562 90.132812 48.300781 C 90.925781 48.375 91.667969 48.46875 92.367188 48.574219 C 93.066406 48.679688 93.714844 48.796875 94.316406 48.933594 C 94.914062 49.066406 95.460938 49.214844 95.957031 49.375 C 96.453125 49.539062 96.894531 49.714844 97.277344 49.902344 C 97.664062 50.089844 97.992188 50.289062 98.265625 50.5 C 98.539062 50.710938 98.753906 50.933594 98.910156 51.167969 C 99.066406 51.398438 99.167969 51.644531 99.207031 51.894531 Z M 99.207031 51.894531 " fill-opacity="1" fill-rule="nonzero"/></g></g></g><g clip-path="url(#3db1bdf9d3)"><g clip-path="url(#df937c1221)"><g clip-path="url(#b668bb5a22)"><path fill="#fa747b" d="M 37.640625 65.734375 L 37.625 65.609375 C 37.105469 62.136719 37.28125 58.660156 38.152344 55.289062 C 38.992188 52.027344 40.4375 48.996094 42.449219 46.28125 C 44.460938 43.5625 46.9375 41.296875 49.808594 39.542969 C 52.785156 37.726562 56.054688 36.542969 59.53125 36.023438 C 63.007812 35.503906 66.480469 35.683594 69.855469 36.550781 C 73.113281 37.390625 76.144531 38.835938 78.863281 40.847656 C 81.578125 42.859375 83.847656 45.335938 85.601562 48.210938 C 87.414062 51.183594 88.597656 54.453125 89.117188 57.929688 L 89.136719 58.050781 Z M 37.640625 65.734375 " fill-opacity="1" fill-rule="nonzero"/></g></g></g><g clip-path="url(#de71139fd3)"><g clip-path="url(#13c9f5ebb4)"><g clip-path="url(#a706bf8af7)"><g transform="matrix(1, 0, 0, 1, 38, 48)"><g clip-path="url(#649d67df83)"><g clip-path="url(#ce7e4c1962)"><g clip-path="url(#bc5db7d07f)"><g clip-path="url(#fc80f2217f)"><path fill="#ff6e76" d="M -0.613281 4.949219 L 47.875 -2.367188 L 49.789062 10.300781 L 1.296875 17.617188 Z M -0.613281 4.949219 " fill-opacity="1" fill-rule="nonzero"/></g></g></g></g></g></g></g></g><g clip-path="url(#c6f7a5af58)"><g clip-path="url(#d408c2ef34)"><g clip-path="url(#491717ec99)"><g transform="matrix(1, 0, 0, 1, 39, 42)"><g clip-path="url(#0e2456c0df)"><g clip-path="url(#a54e04db04)"><g clip-path="url(#c00ce2789b)"><g clip-path="url(#55129ce9ac)"><path fill="#ffd9a0" d="M 0.0742188 4.230469 L 42.5625 -2.183594 L 44.285156 9.242188 L 1.800781 15.652344 Z M 0.0742188 4.230469 " fill-opacity="1" fill-rule="nonzero"/></g></g></g></g></g></g></g></g></svg>