<svg xmlns="http://www.w3.org/2000/svg" xmlns:xlink="http://www.w3.org/1999/xlink" width="192" zoomAndPan="magnify" viewBox="0 0 144 143.999998" height="192" preserveAspectRatio="xMidYMid meet" version="1.0"><defs><filter x="0%" y="0%" width="100%" height="100%" id="7a4cb2a2c4"><feColorMatrix values="0 0 0 0 1 0 0 0 0 1 0 0 0 0 1 0 0 0 1 0" color-interpolation-filters="sRGB"/></filter><g/><clipPath id="30db9b9e81"><path d="M 5.832031 6.910156 L 29.5625 6.910156 L 29.5625 30.644531 L 5.832031 30.644531 Z M 5.832031 6.910156 " clip-rule="nonzero"/></clipPath><clipPath id="0b006fcf20"><path d="M 5 2 L 28 2 L 28 12 L 5 12 Z M 5 2 " clip-rule="nonzero"/></clipPath><clipPath id="f809ac8848"><path d="M 27.863281 7.324219 L 4.539062 11.71875 L 3.1875 4.542969 L 26.511719 0.148438 Z M 27.863281 7.324219 " clip-rule="nonzero"/></clipPath><clipPath id="8fdc895e11"><path d="M 28.738281 11.960938 L 5.414062 16.355469 L 3.273438 4.992188 L 26.59375 0.597656 Z M 28.738281 11.960938 " clip-rule="nonzero"/></clipPath><clipPath id="851fc66ae6"><path d="M 0.398438 7 L 33 7 L 33 16 L 0.398438 16 Z M 0.398438 7 " clip-rule="nonzero"/></clipPath><clipPath id="a303048338"><path d="M 0.398438 10.375 L 32.257812 5.355469 L 33.300781 11.96875 L 1.441406 16.988281 Z M 0.398438 10.375 " clip-rule="nonzero"/></clipPath><clipPath id="58806d1b1a"><path d="M 0.398438 10.375 L 32.257812 5.355469 L 33.300781 11.96875 L 1.441406 16.988281 Z M 0.398438 10.375 " clip-rule="nonzero"/></clipPath><clipPath id="a9f721e07c"><path d="M 5 5 L 28 5 L 28 12 L 5 12 Z M 5 5 " clip-rule="nonzero"/></clipPath><clipPath id="d69d13de61"><path d="M 27.859375 8.671875 L 5.589844 11.992188 L 5.050781 8.382812 L 27.320312 5.058594 Z M 27.859375 8.671875 " clip-rule="nonzero"/></clipPath><clipPath id="caa34a75d5"><path d="M 28.269531 11.410156 L 6 14.734375 L 4.292969 3.296875 L 26.5625 -0.0234375 Z M 28.269531 11.410156 " clip-rule="nonzero"/></clipPath><clipPath id="ba3418b614"><path d="M 6 7 L 28 7 L 28 14 L 6 14 Z M 6 7 " clip-rule="nonzero"/></clipPath><clipPath id="e2b5665847"><path d="M 5.832031 9.207031 L 26.851562 6.035156 L 27.679688 11.527344 L 6.660156 14.699219 Z M 5.832031 9.207031 " clip-rule="nonzero"/></clipPath><clipPath id="adda698467"><path d="M 16.335938 7.621094 C 10.535156 8.496094 6.019531 10.4375 6.246094 11.953125 C 6.476562 13.46875 11.363281 13.988281 17.167969 13.113281 C 22.96875 12.238281 27.484375 10.296875 27.257812 8.78125 C 27.027344 7.265625 22.140625 6.746094 16.335938 7.621094 Z M 16.335938 7.621094 " clip-rule="nonzero"/></clipPath><clipPath id="06003c869a"><path d="M 0 0 L 21.519531 0 L 21.519531 7 L 0 7 Z M 0 0 " clip-rule="nonzero"/></clipPath><clipPath id="02914cb0c3"><path d="M -0.167969 2.207031 L 20.851562 -0.964844 L 21.679688 4.527344 L 0.660156 7.699219 Z M -0.167969 2.207031 " clip-rule="nonzero"/></clipPath><clipPath id="3426fb1e68"><path d="M 10.335938 0.621094 C 4.535156 1.496094 0.0195312 3.4375 0.246094 4.953125 C 0.476562 6.46875 5.363281 6.988281 11.167969 6.113281 C 16.96875 5.238281 21.484375 3.296875 21.257812 1.78125 C 21.027344 0.265625 16.140625 -0.253906 10.335938 0.621094 Z M 10.335938 0.621094 " clip-rule="nonzero"/></clipPath><clipPath id="d352ef263f"><rect x="0" width="22" y="0" height="7"/></clipPath><clipPath id="1e0977f603"><path d="M 6 4 L 26 4 L 26 11 L 6 11 Z M 6 4 " clip-rule="nonzero"/></clipPath><clipPath id="64fcdc9f61"><path d="M 6.5625 6.292969 L 25 3.511719 L 25.746094 8.464844 L 7.3125 11.246094 Z M 6.5625 6.292969 " clip-rule="nonzero"/></clipPath><clipPath id="3b8aad2414"><path d="M 15.777344 4.902344 C 10.6875 5.671875 6.730469 7.402344 6.9375 8.769531 C 7.144531 10.136719 11.4375 10.625 16.523438 9.855469 C 21.613281 9.089844 25.570312 7.355469 25.363281 5.988281 C 25.15625 4.621094 20.863281 4.136719 15.777344 4.902344 Z M 15.777344 4.902344 " clip-rule="nonzero"/></clipPath><clipPath id="9d0c441837"><path d="M 0.640625 0 L 19.601562 0 L 19.601562 6.71875 L 0.640625 6.71875 Z M 0.640625 0 " clip-rule="nonzero"/></clipPath><clipPath id="19ab173fd4"><path d="M 0.5625 2.292969 L 19 -0.488281 L 19.746094 4.464844 L 1.3125 7.246094 Z M 0.5625 2.292969 " clip-rule="nonzero"/></clipPath><clipPath id="f519e797aa"><path d="M 9.777344 0.902344 C 4.6875 1.671875 0.730469 3.402344 0.9375 4.769531 C 1.144531 6.136719 5.4375 6.625 10.523438 5.855469 C 15.613281 5.089844 19.570312 3.355469 19.363281 1.988281 C 19.15625 0.621094 14.863281 0.136719 9.777344 0.902344 Z M 9.777344 0.902344 " clip-rule="nonzero"/></clipPath><clipPath id="58035f0bd2"><rect x="0" width="20" y="0" height="7"/></clipPath><clipPath id="cd21161c52"><rect x="0" width="34" y="0" height="32"/></clipPath><clipPath id="b6a768fb32"><path d="M 13.886719 0 L 144 0 L 144 78.558594 L 13.886719 78.558594 Z M 13.886719 0 " clip-rule="nonzero"/></clipPath><clipPath id="3d0a5104a7"><path d="M 0.886719 0 L 131 0 L 131 78.558594 L 0.886719 78.558594 Z M 0.886719 0 " clip-rule="nonzero"/></clipPath><clipPath id="071d3feef3"><path d="M 0.886719 0 L 131 0 L 131 78.558594 L 0.886719 78.558594 Z M 0.886719 0 " clip-rule="nonzero"/></clipPath><clipPath id="835c93a440"><rect x="0" width="131" y="0" height="79"/></clipPath><clipPath id="3dfbe5603d"><rect x="0" width="131" y="0" height="79"/></clipPath><mask id="3d0531137a"><g filter="url(#7a4cb2a2c4)"><g transform="matrix(1, 0, 0, 1, -0.000000000000003553, -0.000000000000008916)"><g clip-path="url(#3dfbe5603d)"><g clip-path="url(#071d3feef3)"><g transform="matrix(1, 0, 0, 1, -0.000000000000003553, -0.000000000000008916)"><g clip-path="url(#835c93a440)"><g fill="#000000" fill-opacity="1"><g transform="translate(36.147359, 38.059052)"><g><path d="M 12.625 -12.359375 C 12.46875 -10.160156 12.367188 -8.296875 12.328125 -6.765625 C 12.285156 -5.234375 12.265625 -3.535156 12.265625 -1.671875 L 12.265625 0 L 9.859375 0 C 9.859375 -0.707031 9.789062 -1.851562 9.65625 -3.4375 C 9.53125 -5.019531 9.390625 -6.101562 9.234375 -6.6875 C 9.179688 -6.851562 9.078125 -6.9375 8.921875 -6.9375 C 8.691406 -6.9375 8.394531 -6.796875 8.03125 -6.515625 C 7.675781 -6.234375 7.363281 -5.894531 7.09375 -5.5 C 6.832031 -5.101562 6.703125 -4.753906 6.703125 -4.453125 C 6.703125 -4.359375 6.726562 -4.25 6.78125 -4.125 C 6.914062 -3.875 7.144531 -3.75 7.46875 -3.75 C 7.59375 -3.75 7.691406 -3.753906 7.765625 -3.765625 L 9.09375 -3.90625 L 9.34375 0 L 8.6875 0 C 7.675781 0 6.921875 -0.191406 6.421875 -0.578125 C 5.921875 -0.972656 5.59375 -1.457031 5.4375 -2.03125 C 5.289062 -2.601562 5.179688 -3.398438 5.109375 -4.421875 C 5.085938 -4.796875 5.0625 -5.363281 5.03125 -6.125 C 5 -6.894531 4.96875 -7.46875 4.9375 -7.84375 C 4.925781 -8.195312 4.757812 -8.375 4.4375 -8.375 C 4.320312 -8.375 4.242188 -8.363281 4.203125 -8.34375 L 4.1875 -8.34375 C 4.164062 -7.738281 4.15625 -7.285156 4.15625 -6.984375 C 4.15625 -5.984375 4.191406 -5.03125 4.265625 -4.125 C 4.335938 -3.21875 4.441406 -2.207031 4.578125 -1.09375 C 4.597656 -0.914062 4.640625 -0.550781 4.703125 0 L 0.90625 0 C 0.988281 -1.351562 1.03125 -2.742188 1.03125 -4.171875 C 1.03125 -6.816406 0.863281 -9.546875 0.53125 -12.359375 L 2.15625 -12.359375 C 3.257812 -12.359375 4.078125 -12.289062 4.609375 -12.15625 C 5.148438 -12.019531 5.5625 -11.710938 5.84375 -11.234375 C 6.132812 -10.753906 6.328125 -10 6.421875 -8.96875 L 8.6875 -12.359375 Z M 12.625 -12.359375 "/></g></g></g><g fill="#000000" fill-opacity="1"><g transform="translate(49.304207, 38.059052)"><g><path d="M 9.53125 -12.359375 L 9.53125 -4.421875 C 9.53125 -3.140625 9.132812 -2.082031 8.34375 -1.25 C 7.5625 -0.414062 6.253906 0 4.421875 0 L 0.84375 0 L 0.84375 -4.15625 L 5.78125 -3.53125 C 5.851562 -3.519531 5.957031 -3.515625 6.09375 -3.515625 C 6.375 -3.515625 6.566406 -3.570312 6.671875 -3.6875 C 6.785156 -3.800781 6.84375 -3.96875 6.84375 -4.1875 C 6.84375 -4.4375 6.753906 -4.859375 6.578125 -5.453125 C 6.109375 -5.160156 5.554688 -4.914062 4.921875 -4.71875 C 4.179688 -4.488281 3.546875 -4.375 3.015625 -4.375 C 2.296875 -4.375 1.773438 -4.578125 1.453125 -4.984375 C 1.128906 -5.398438 0.96875 -5.992188 0.96875 -6.765625 C 0.96875 -7.328125 0.921875 -8.175781 0.828125 -9.3125 C 0.734375 -10.457031 0.632812 -11.472656 0.53125 -12.359375 L 3.3125 -12.359375 L 3.421875 -11.578125 C 3.609375 -10.316406 3.757812 -9.40625 3.875 -8.84375 C 4 -8.28125 4.160156 -7.847656 4.359375 -7.546875 C 4.566406 -7.242188 4.863281 -7.125 5.25 -7.1875 C 5.46875 -7.21875 5.625 -7.316406 5.71875 -7.484375 C 5.820312 -7.648438 5.875 -7.914062 5.875 -8.28125 C 5.875 -8.894531 5.71875 -10.101562 5.40625 -11.90625 Z M 9.53125 -12.359375 "/></g></g></g><g fill="#000000" fill-opacity="1"><g transform="translate(59.017277, 38.059052)"><g><path d="M 4.65625 -12.359375 C 5.050781 -9.296875 5.578125 -6.578125 6.234375 -4.203125 C 6.566406 -5.328125 6.878906 -6.625 7.171875 -8.09375 C 7.472656 -9.5625 7.722656 -10.984375 7.921875 -12.359375 L 10.734375 -11.875 C 10.273438 -9.945312 9.890625 -8.21875 9.578125 -6.6875 C 9.265625 -5.15625 8.863281 -3.03125 8.375 -0.3125 L 3.484375 0 C 2.867188 -4.132812 1.882812 -8.253906 0.53125 -12.359375 Z M 4.65625 -12.359375 "/></g></g></g><g fill="#000000" fill-opacity="1"><g transform="translate(69.931243, 38.059052)"><g><path d="M 5.65625 -12.359375 C 6.945312 -12.359375 7.863281 -11.9375 8.40625 -11.09375 C 8.945312 -10.25 9.21875 -8.929688 9.21875 -7.140625 C 9.21875 -6.335938 9.1875 -5.601562 9.125 -4.9375 L 2.8125 -4.625 C 3 -3.882812 3.410156 -3.515625 4.046875 -3.515625 C 4.148438 -3.515625 4.234375 -3.519531 4.296875 -3.53125 L 8.859375 -4.15625 L 8.859375 0 L 5.65625 0 C 3.8125 0 2.492188 -0.414062 1.703125 -1.25 C 0.921875 -2.082031 0.53125 -3.140625 0.53125 -4.421875 L 0.53125 -7.34375 C 0.53125 -10.6875 2.238281 -12.359375 5.65625 -12.359375 Z M 5.25 -6.96875 C 5.25 -7.476562 5.144531 -7.863281 4.9375 -8.125 C 4.726562 -8.382812 4.472656 -8.515625 4.171875 -8.515625 C 3.835938 -8.515625 3.523438 -8.363281 3.234375 -8.0625 C 2.941406 -7.769531 2.757812 -7.378906 2.6875 -6.890625 Z M 5.25 -6.96875 "/></g></g></g><g fill="#000000" fill-opacity="1"><g transform="translate(79.679675, 38.059052)"><g><path d="M 6.65625 -12.359375 C 7.519531 -12.359375 8.15625 -12.132812 8.5625 -11.6875 C 8.976562 -11.238281 9.238281 -10.644531 9.34375 -9.90625 C 9.445312 -9.164062 9.5 -8.144531 9.5 -6.84375 L 5.6875 -6.28125 C 5.6875 -6.96875 5.613281 -7.476562 5.46875 -7.8125 C 5.332031 -8.15625 5.085938 -8.328125 4.734375 -8.328125 C 4.472656 -8.328125 4.3125 -8.210938 4.25 -7.984375 C 4.195312 -7.765625 4.179688 -7.375 4.203125 -6.8125 C 4.316406 -4.5625 4.46875 -2.289062 4.65625 0 L 0.53125 0 C 0.863281 -2.8125 1.03125 -5.539062 1.03125 -8.1875 C 1.03125 -9.613281 0.988281 -11.003906 0.90625 -12.359375 L 4.109375 -12.359375 L 4.109375 -11.328125 C 4.828125 -12.015625 5.675781 -12.359375 6.65625 -12.359375 Z M 6.65625 -12.359375 "/></g></g></g><g fill="#000000" fill-opacity="1"><g transform="translate(89.710672, 38.059052)"><g><path d="M 6.546875 -7.515625 C 7.273438 -7.335938 7.835938 -7.15625 8.234375 -6.96875 C 8.640625 -6.78125 8.925781 -6.550781 9.09375 -6.28125 C 9.257812 -6.019531 9.34375 -5.691406 9.34375 -5.296875 C 9.34375 -5.054688 9.300781 -4.691406 9.21875 -4.203125 C 8.988281 -2.960938 8.769531 -2.085938 8.5625 -1.578125 C 8.363281 -1.078125 7.929688 -0.6875 7.265625 -0.40625 C 6.609375 -0.132812 5.546875 0 4.078125 0 L 0.84375 0 L 0.78125 -4.375 L 5.578125 -3.90625 C 5.960938 -3.851562 6.273438 -3.910156 6.515625 -4.078125 C 6.753906 -4.242188 6.875 -4.441406 6.875 -4.671875 C 6.875 -4.828125 6.8125 -4.96875 6.6875 -5.09375 C 6.570312 -5.21875 6.394531 -5.300781 6.15625 -5.34375 L 2.546875 -6.1875 C 2.035156 -6.300781 1.640625 -6.445312 1.359375 -6.625 C 1.078125 -6.800781 0.867188 -7.050781 0.734375 -7.375 C 0.597656 -7.695312 0.53125 -8.144531 0.53125 -8.71875 C 0.53125 -9.664062 0.71875 -10.507812 1.09375 -11.25 C 1.476562 -11.988281 2.148438 -12.359375 3.109375 -12.359375 L 8.65625 -12.359375 L 8.65625 -8.6875 L 2.90625 -9.046875 C 2.738281 -9.046875 2.65625 -8.972656 2.65625 -8.828125 C 2.65625 -8.648438 2.734375 -8.519531 2.890625 -8.4375 C 3.054688 -8.363281 3.414062 -8.265625 3.96875 -8.140625 Z M 6.546875 -7.515625 "/></g></g></g><g fill="#000000" fill-opacity="1"><g transform="translate(99.582723, 38.059052)"><g><path d="M 5.65625 -12.359375 C 6.945312 -12.359375 7.863281 -11.9375 8.40625 -11.09375 C 8.945312 -10.25 9.21875 -8.929688 9.21875 -7.140625 C 9.21875 -6.335938 9.1875 -5.601562 9.125 -4.9375 L 2.8125 -4.625 C 3 -3.882812 3.410156 -3.515625 4.046875 -3.515625 C 4.148438 -3.515625 4.234375 -3.519531 4.296875 -3.53125 L 8.859375 -4.15625 L 8.859375 0 L 5.65625 0 C 3.8125 0 2.492188 -0.414062 1.703125 -1.25 C 0.921875 -2.082031 0.53125 -3.140625 0.53125 -4.421875 L 0.53125 -7.34375 C 0.53125 -10.6875 2.238281 -12.359375 5.65625 -12.359375 Z M 5.25 -6.96875 C 5.25 -7.476562 5.144531 -7.863281 4.9375 -8.125 C 4.726562 -8.382812 4.472656 -8.515625 4.171875 -8.515625 C 3.835938 -8.515625 3.523438 -8.363281 3.234375 -8.0625 C 2.941406 -7.769531 2.757812 -7.378906 2.6875 -6.890625 Z M 5.25 -6.96875 "/></g></g></g></g></g></g></g></g></g></mask><clipPath id="0cdf8344fd"><path d="M 0.886719 0 L 131 0 L 131 77.058594 L 0.886719 77.058594 Z M 0.886719 0 " clip-rule="nonzero"/></clipPath><linearGradient x1="-47.095001" gradientTransform="matrix(0.750719, 0, 0, 0.748655, 36.241149, 19.329528)" y1="15.5" x2="126.224054" gradientUnits="userSpaceOnUse" y2="15.5" id="6f210f7573"><stop stop-opacity="1" stop-color="rgb(92.158508%, 29.40979%, 24.708557%)" offset="0"/><stop stop-opacity="1" stop-color="rgb(92.158508%, 29.40979%, 24.708557%)" offset="0.25"/><stop stop-opacity="1" stop-color="rgb(92.158508%, 29.40979%, 24.708557%)" offset="0.265625"/><stop stop-opacity="1" stop-color="rgb(92.16156%, 29.450989%, 24.723816%)" offset="0.273438"/><stop stop-opacity="1" stop-color="rgb(92.178345%, 29.690552%, 24.816895%)" offset="0.277344"/><stop stop-opacity="1" stop-color="rgb(92.192078%, 29.888916%, 24.893188%)" offset="0.28125"/><stop stop-opacity="1" stop-color="rgb(92.205811%, 30.08728%, 24.969482%)" offset="0.285156"/><stop stop-opacity="1" stop-color="rgb(92.219543%, 30.285645%, 25.045776%)" offset="0.289062"/><stop stop-opacity="1" stop-color="rgb(92.233276%, 30.484009%, 25.12207%)" offset="0.292969"/><stop stop-opacity="1" stop-color="rgb(92.247009%, 30.683899%, 25.198364%)" offset="0.296875"/><stop stop-opacity="1" stop-color="rgb(92.259216%, 30.882263%, 25.274658%)" offset="0.300781"/><stop stop-opacity="1" stop-color="rgb(92.272949%, 31.080627%, 25.350952%)" offset="0.304688"/><stop stop-opacity="1" stop-color="rgb(92.286682%, 31.278992%, 25.42572%)" offset="0.308594"/><stop stop-opacity="1" stop-color="rgb(92.300415%, 31.477356%, 25.502014%)" offset="0.3125"/><stop stop-opacity="1" stop-color="rgb(92.314148%, 31.67572%, 25.578308%)" offset="0.316406"/><stop stop-opacity="1" stop-color="rgb(92.327881%, 31.87561%, 25.654602%)" offset="0.320312"/><stop stop-opacity="1" stop-color="rgb(92.341614%, 32.073975%, 25.730896%)" offset="0.324219"/><stop stop-opacity="1" stop-color="rgb(92.355347%, 32.272339%, 25.80719%)" offset="0.328125"/><stop stop-opacity="1" stop-color="rgb(92.36908%, 32.470703%, 25.883484%)" offset="0.332031"/><stop stop-opacity="1" stop-color="rgb(92.382812%, 32.669067%, 25.959778%)" offset="0.335938"/><stop stop-opacity="1" stop-color="rgb(92.396545%, 32.867432%, 26.036072%)" offset="0.339844"/><stop stop-opacity="1" stop-color="rgb(92.410278%, 33.067322%, 26.112366%)" offset="0.34375"/><stop stop-opacity="1" stop-color="rgb(92.422485%, 33.265686%, 26.18866%)" offset="0.347656"/><stop stop-opacity="1" stop-color="rgb(92.436218%, 33.46405%, 26.264954%)" offset="0.351562"/><stop stop-opacity="1" stop-color="rgb(92.449951%, 33.662415%, 26.339722%)" offset="0.355469"/><stop stop-opacity="1" stop-color="rgb(92.463684%, 33.860779%, 26.416016%)" offset="0.359375"/><stop stop-opacity="1" stop-color="rgb(92.477417%, 34.059143%, 26.49231%)" offset="0.363281"/><stop stop-opacity="1" stop-color="rgb(92.49115%, 34.259033%, 26.568604%)" offset="0.367188"/><stop stop-opacity="1" stop-color="rgb(92.504883%, 34.457397%, 26.644897%)" offset="0.371094"/><stop stop-opacity="1" stop-color="rgb(92.518616%, 34.655762%, 26.721191%)" offset="0.375"/><stop stop-opacity="1" stop-color="rgb(92.532349%, 34.854126%, 26.797485%)" offset="0.378906"/><stop stop-opacity="1" stop-color="rgb(92.546082%, 35.05249%, 26.873779%)" offset="0.382812"/><stop stop-opacity="1" stop-color="rgb(92.559814%, 35.250854%, 26.950073%)" offset="0.386719"/><stop stop-opacity="1" stop-color="rgb(92.573547%, 35.450745%, 27.026367%)" offset="0.390625"/><stop stop-opacity="1" stop-color="rgb(92.585754%, 35.649109%, 27.102661%)" offset="0.394531"/><stop stop-opacity="1" stop-color="rgb(92.599487%, 35.847473%, 27.178955%)" offset="0.398438"/><stop stop-opacity="1" stop-color="rgb(92.61322%, 36.045837%, 27.253723%)" offset="0.402344"/><stop stop-opacity="1" stop-color="rgb(92.626953%, 36.244202%, 27.330017%)" offset="0.40625"/><stop stop-opacity="1" stop-color="rgb(92.640686%, 36.442566%, 27.406311%)" offset="0.410156"/><stop stop-opacity="1" stop-color="rgb(92.654419%, 36.642456%, 27.482605%)" offset="0.414062"/><stop stop-opacity="1" stop-color="rgb(92.668152%, 36.84082%, 27.558899%)" offset="0.417969"/><stop stop-opacity="1" stop-color="rgb(92.681885%, 37.039185%, 27.635193%)" offset="0.421875"/><stop stop-opacity="1" stop-color="rgb(92.695618%, 37.237549%, 27.711487%)" offset="0.425781"/><stop stop-opacity="1" stop-color="rgb(92.709351%, 37.435913%, 27.787781%)" offset="0.429688"/><stop stop-opacity="1" stop-color="rgb(92.721558%, 37.634277%, 27.864075%)" offset="0.433594"/><stop stop-opacity="1" stop-color="rgb(92.735291%, 37.834167%, 27.940369%)" offset="0.4375"/><stop stop-opacity="1" stop-color="rgb(92.749023%, 38.032532%, 28.016663%)" offset="0.441406"/><stop stop-opacity="1" stop-color="rgb(92.762756%, 38.230896%, 28.092957%)" offset="0.445312"/><stop stop-opacity="1" stop-color="rgb(92.776489%, 38.42926%, 28.167725%)" offset="0.449219"/><stop stop-opacity="1" stop-color="rgb(92.790222%, 38.627625%, 28.244019%)" offset="0.453125"/><stop stop-opacity="1" stop-color="rgb(92.803955%, 38.825989%, 28.320312%)" offset="0.457031"/><stop stop-opacity="1" stop-color="rgb(92.817688%, 39.024353%, 28.396606%)" offset="0.460938"/><stop stop-opacity="1" stop-color="rgb(92.831421%, 39.222717%, 28.4729%)" offset="0.464844"/><stop stop-opacity="1" stop-color="rgb(92.845154%, 39.422607%, 28.549194%)" offset="0.46875"/><stop stop-opacity="1" stop-color="rgb(92.858887%, 39.620972%, 28.625488%)" offset="0.472656"/><stop stop-opacity="1" stop-color="rgb(92.87262%, 39.819336%, 28.701782%)" offset="0.476562"/><stop stop-opacity="1" stop-color="rgb(92.884827%, 40.0177%, 28.778076%)" offset="0.480469"/><stop stop-opacity="1" stop-color="rgb(92.89856%, 40.216064%, 28.85437%)" offset="0.484375"/><stop stop-opacity="1" stop-color="rgb(92.912292%, 40.414429%, 28.930664%)" offset="0.488281"/><stop stop-opacity="1" stop-color="rgb(92.926025%, 40.614319%, 29.006958%)" offset="0.492188"/><stop stop-opacity="1" stop-color="rgb(92.939758%, 40.812683%, 29.081726%)" offset="0.496094"/><stop stop-opacity="1" stop-color="rgb(92.953491%, 41.011047%, 29.15802%)" offset="0.5"/><stop stop-opacity="1" stop-color="rgb(92.967224%, 41.209412%, 29.234314%)" offset="0.503906"/><stop stop-opacity="1" stop-color="rgb(92.980957%, 41.407776%, 29.310608%)" offset="0.507812"/><stop stop-opacity="1" stop-color="rgb(92.99469%, 41.60614%, 29.386902%)" offset="0.511719"/><stop stop-opacity="1" stop-color="rgb(93.008423%, 41.80603%, 29.463196%)" offset="0.515625"/><stop stop-opacity="1" stop-color="rgb(93.02063%, 42.004395%, 29.53949%)" offset="0.519531"/><stop stop-opacity="1" stop-color="rgb(93.034363%, 42.202759%, 29.615784%)" offset="0.523438"/><stop stop-opacity="1" stop-color="rgb(93.048096%, 42.401123%, 29.692078%)" offset="0.527344"/><stop stop-opacity="1" stop-color="rgb(93.061829%, 42.599487%, 29.768372%)" offset="0.53125"/><stop stop-opacity="1" stop-color="rgb(93.075562%, 42.797852%, 29.844666%)" offset="0.535156"/><stop stop-opacity="1" stop-color="rgb(93.089294%, 42.997742%, 29.920959%)" offset="0.539062"/><stop stop-opacity="1" stop-color="rgb(93.103027%, 43.196106%, 29.997253%)" offset="0.542969"/><stop stop-opacity="1" stop-color="rgb(93.11676%, 43.39447%, 30.073547%)" offset="0.546875"/><stop stop-opacity="1" stop-color="rgb(93.130493%, 43.592834%, 30.148315%)" offset="0.550781"/><stop stop-opacity="1" stop-color="rgb(93.144226%, 43.791199%, 30.224609%)" offset="0.554688"/><stop stop-opacity="1" stop-color="rgb(93.157959%, 43.989563%, 30.300903%)" offset="0.558594"/><stop stop-opacity="1" stop-color="rgb(93.171692%, 44.189453%, 30.377197%)" offset="0.5625"/><stop stop-opacity="1" stop-color="rgb(93.183899%, 44.387817%, 30.453491%)" offset="0.566406"/><stop stop-opacity="1" stop-color="rgb(93.197632%, 44.586182%, 30.529785%)" offset="0.570312"/><stop stop-opacity="1" stop-color="rgb(93.211365%, 44.784546%, 30.606079%)" offset="0.574219"/><stop stop-opacity="1" stop-color="rgb(93.225098%, 44.98291%, 30.682373%)" offset="0.578125"/><stop stop-opacity="1" stop-color="rgb(93.238831%, 45.181274%, 30.758667%)" offset="0.582031"/><stop stop-opacity="1" stop-color="rgb(93.252563%, 45.381165%, 30.834961%)" offset="0.585938"/><stop stop-opacity="1" stop-color="rgb(93.266296%, 45.579529%, 30.911255%)" offset="0.589844"/><stop stop-opacity="1" stop-color="rgb(93.280029%, 45.777893%, 30.987549%)" offset="0.59375"/><stop stop-opacity="1" stop-color="rgb(93.293762%, 45.976257%, 31.062317%)" offset="0.597656"/><stop stop-opacity="1" stop-color="rgb(93.307495%, 46.174622%, 31.138611%)" offset="0.601562"/><stop stop-opacity="1" stop-color="rgb(93.321228%, 46.372986%, 31.214905%)" offset="0.605469"/><stop stop-opacity="1" stop-color="rgb(93.334961%, 46.572876%, 31.291199%)" offset="0.609375"/><stop stop-opacity="1" stop-color="rgb(93.347168%, 46.77124%, 31.367493%)" offset="0.613281"/><stop stop-opacity="1" stop-color="rgb(93.360901%, 46.969604%, 31.443787%)" offset="0.617188"/><stop stop-opacity="1" stop-color="rgb(93.374634%, 47.167969%, 31.520081%)" offset="0.621094"/><stop stop-opacity="1" stop-color="rgb(93.388367%, 47.366333%, 31.596375%)" offset="0.625"/><stop stop-opacity="1" stop-color="rgb(93.4021%, 47.564697%, 31.672668%)" offset="0.628906"/><stop stop-opacity="1" stop-color="rgb(93.415833%, 47.764587%, 31.748962%)" offset="0.632812"/><stop stop-opacity="1" stop-color="rgb(93.429565%, 47.962952%, 31.825256%)" offset="0.636719"/><stop stop-opacity="1" stop-color="rgb(93.443298%, 48.161316%, 31.90155%)" offset="0.640625"/><stop stop-opacity="1" stop-color="rgb(93.457031%, 48.35968%, 31.976318%)" offset="0.644531"/><stop stop-opacity="1" stop-color="rgb(93.470764%, 48.558044%, 32.052612%)" offset="0.648437"/><stop stop-opacity="1" stop-color="rgb(93.482971%, 48.756409%, 32.128906%)" offset="0.652344"/><stop stop-opacity="1" stop-color="rgb(93.496704%, 48.956299%, 32.2052%)" offset="0.65625"/><stop stop-opacity="1" stop-color="rgb(93.510437%, 49.154663%, 32.281494%)" offset="0.660156"/><stop stop-opacity="1" stop-color="rgb(93.52417%, 49.353027%, 32.357788%)" offset="0.664062"/><stop stop-opacity="1" stop-color="rgb(93.537903%, 49.551392%, 32.434082%)" offset="0.667969"/><stop stop-opacity="1" stop-color="rgb(93.551636%, 49.749756%, 32.510376%)" offset="0.671875"/><stop stop-opacity="1" stop-color="rgb(93.565369%, 49.94812%, 32.58667%)" offset="0.675781"/><stop stop-opacity="1" stop-color="rgb(93.579102%, 50.14801%, 32.662964%)" offset="0.679688"/><stop stop-opacity="1" stop-color="rgb(93.592834%, 50.346375%, 32.739258%)" offset="0.683594"/><stop stop-opacity="1" stop-color="rgb(93.606567%, 50.544739%, 32.815552%)" offset="0.6875"/><stop stop-opacity="1" stop-color="rgb(93.6203%, 50.743103%, 32.89032%)" offset="0.691406"/><stop stop-opacity="1" stop-color="rgb(93.634033%, 50.941467%, 32.966614%)" offset="0.695312"/><stop stop-opacity="1" stop-color="rgb(93.64624%, 51.139832%, 33.042908%)" offset="0.699219"/><stop stop-opacity="1" stop-color="rgb(93.659973%, 51.339722%, 33.119202%)" offset="0.703125"/><stop stop-opacity="1" stop-color="rgb(93.673706%, 51.538086%, 33.195496%)" offset="0.707031"/><stop stop-opacity="1" stop-color="rgb(93.687439%, 51.73645%, 33.27179%)" offset="0.710938"/><stop stop-opacity="1" stop-color="rgb(93.701172%, 51.934814%, 33.348083%)" offset="0.714844"/><stop stop-opacity="1" stop-color="rgb(93.714905%, 52.133179%, 33.424377%)" offset="0.71875"/><stop stop-opacity="1" stop-color="rgb(93.728638%, 52.331543%, 33.500671%)" offset="0.722656"/><stop stop-opacity="1" stop-color="rgb(93.742371%, 52.531433%, 33.576965%)" offset="0.726562"/><stop stop-opacity="1" stop-color="rgb(93.756104%, 52.729797%, 33.653259%)" offset="0.730469"/><stop stop-opacity="1" stop-color="rgb(93.769836%, 52.928162%, 33.729553%)" offset="0.734375"/><stop stop-opacity="1" stop-color="rgb(93.782043%, 53.126526%, 33.804321%)" offset="0.738281"/><stop stop-opacity="1" stop-color="rgb(93.795776%, 53.32489%, 33.880615%)" offset="0.742188"/><stop stop-opacity="1" stop-color="rgb(93.809509%, 53.523254%, 33.956909%)" offset="0.746094"/><stop stop-opacity="1" stop-color="rgb(93.823242%, 53.723145%, 34.033203%)" offset="0.75"/><stop stop-opacity="1" stop-color="rgb(93.836975%, 53.921509%, 34.109497%)" offset="0.753906"/><stop stop-opacity="1" stop-color="rgb(93.850708%, 54.119873%, 34.185791%)" offset="0.757812"/><stop stop-opacity="1" stop-color="rgb(93.864441%, 54.318237%, 34.262085%)" offset="0.761719"/><stop stop-opacity="1" stop-color="rgb(93.878174%, 54.516602%, 34.338379%)" offset="0.765625"/><stop stop-opacity="1" stop-color="rgb(93.891907%, 54.714966%, 34.414673%)" offset="0.769531"/><stop stop-opacity="1" stop-color="rgb(93.90564%, 54.914856%, 34.490967%)" offset="0.773438"/><stop stop-opacity="1" stop-color="rgb(93.919373%, 55.11322%, 34.567261%)" offset="0.777344"/><stop stop-opacity="1" stop-color="rgb(93.933105%, 55.311584%, 34.643555%)" offset="0.78125"/><stop stop-opacity="1" stop-color="rgb(93.945312%, 55.509949%, 34.719849%)" offset="0.785156"/><stop stop-opacity="1" stop-color="rgb(93.959045%, 55.708313%, 34.796143%)" offset="0.789062"/><stop stop-opacity="1" stop-color="rgb(93.972778%, 55.906677%, 34.870911%)" offset="0.792969"/><stop stop-opacity="1" stop-color="rgb(93.986511%, 56.106567%, 34.947205%)" offset="0.796875"/><stop stop-opacity="1" stop-color="rgb(94.000244%, 56.304932%, 35.023499%)" offset="0.800781"/><stop stop-opacity="1" stop-color="rgb(94.013977%, 56.503296%, 35.099792%)" offset="0.804688"/><stop stop-opacity="1" stop-color="rgb(94.02771%, 56.70166%, 35.176086%)" offset="0.808594"/><stop stop-opacity="1" stop-color="rgb(94.041443%, 56.900024%, 35.25238%)" offset="0.8125"/><stop stop-opacity="1" stop-color="rgb(94.055176%, 57.098389%, 35.328674%)" offset="0.816406"/><stop stop-opacity="1" stop-color="rgb(94.068909%, 57.298279%, 35.404968%)" offset="0.820312"/><stop stop-opacity="1" stop-color="rgb(94.082642%, 57.496643%, 35.481262%)" offset="0.824219"/><stop stop-opacity="1" stop-color="rgb(94.096375%, 57.695007%, 35.557556%)" offset="0.828125"/><stop stop-opacity="1" stop-color="rgb(94.107056%, 57.867432%, 35.623169%)" offset="0.84375"/><stop stop-opacity="1" stop-color="rgb(94.119263%, 58.039856%, 35.688782%)" offset="0.875"/><stop stop-opacity="1" stop-color="rgb(94.119263%, 58.039856%, 35.688782%)" offset="1"/></linearGradient><clipPath id="fc7f18704b"><rect x="0" width="131" y="0" height="79"/></clipPath><clipPath id="3c2bb01e77"><rect x="0" width="131" y="0" height="79"/></clipPath></defs><g transform="matrix(1, 0, 0, 1, 14, 14)"><g clip-path="url(#cd21161c52)"><g clip-path="url(#30db9b9e81)"><path fill="#f7ca4b" d="M 29.566406 18.777344 C 29.566406 19.554688 29.488281 20.328125 29.335938 21.09375 C 29.183594 21.855469 28.960938 22.597656 28.660156 23.316406 C 28.363281 24.039062 28 24.722656 27.566406 25.371094 C 27.132812 26.015625 26.640625 26.617188 26.089844 27.167969 C 25.539062 27.71875 24.9375 28.210938 24.292969 28.644531 C 23.644531 29.078125 22.960938 29.441406 22.238281 29.738281 C 21.519531 30.039062 20.777344 30.261719 20.015625 30.414062 C 19.25 30.566406 18.476562 30.644531 17.699219 30.644531 C 16.917969 30.644531 16.148438 30.566406 15.382812 30.414062 C 14.621094 30.261719 13.878906 30.039062 13.15625 29.738281 C 12.4375 29.441406 11.753906 29.078125 11.105469 28.644531 C 10.457031 28.210938 9.859375 27.71875 9.308594 27.167969 C 8.757812 26.617188 8.265625 26.015625 7.832031 25.371094 C 7.398438 24.722656 7.035156 24.039062 6.734375 23.316406 C 6.4375 22.597656 6.210938 21.855469 6.0625 21.09375 C 5.910156 20.328125 5.832031 19.554688 5.832031 18.777344 C 5.832031 17.996094 5.910156 17.226562 6.0625 16.460938 C 6.210938 15.699219 6.4375 14.957031 6.734375 14.234375 C 7.035156 13.515625 7.398438 12.832031 7.832031 12.183594 C 8.265625 11.535156 8.757812 10.9375 9.308594 10.386719 C 9.859375 9.835938 10.457031 9.34375 11.105469 8.910156 C 11.753906 8.476562 12.4375 8.113281 13.15625 7.8125 C 13.878906 7.515625 14.621094 7.289062 15.382812 7.140625 C 16.148438 6.988281 16.917969 6.910156 17.699219 6.910156 C 18.476562 6.910156 19.25 6.988281 20.015625 7.140625 C 20.777344 7.289062 21.519531 7.515625 22.238281 7.8125 C 22.960938 8.113281 23.644531 8.476562 24.292969 8.910156 C 24.9375 9.34375 25.539062 9.835938 26.089844 10.386719 C 26.640625 10.9375 27.132812 11.535156 27.566406 12.183594 C 28 12.832031 28.363281 13.515625 28.660156 14.234375 C 28.960938 14.957031 29.183594 15.699219 29.335938 16.460938 C 29.488281 17.226562 29.566406 17.996094 29.566406 18.777344 Z M 29.566406 18.777344 " fill-opacity="1" fill-rule="nonzero"/></g><path fill="#ebac33" d="M 27.90625 18.777344 C 27.90625 19.449219 27.839844 20.109375 27.710938 20.769531 C 27.578125 21.425781 27.386719 22.0625 27.128906 22.683594 C 26.875 23.300781 26.558594 23.890625 26.1875 24.449219 C 25.8125 25.003906 25.390625 25.519531 24.917969 25.996094 C 24.441406 26.46875 23.925781 26.890625 23.371094 27.265625 C 22.8125 27.636719 22.226562 27.953125 21.605469 28.207031 C 20.984375 28.464844 20.347656 28.65625 19.691406 28.789062 C 19.03125 28.917969 18.371094 28.984375 17.699219 28.984375 C 17.027344 28.984375 16.363281 28.917969 15.707031 28.789062 C 15.050781 28.65625 14.410156 28.464844 13.792969 28.207031 C 13.171875 27.953125 12.585938 27.636719 12.027344 27.265625 C 11.46875 26.890625 10.953125 26.46875 10.480469 25.996094 C 10.007812 25.519531 9.582031 25.003906 9.210938 24.449219 C 8.839844 23.890625 8.523438 23.300781 8.269531 22.683594 C 8.011719 22.0625 7.816406 21.425781 7.6875 20.769531 C 7.554688 20.109375 7.492188 19.449219 7.492188 18.777344 C 7.492188 18.105469 7.554688 17.441406 7.6875 16.785156 C 7.816406 16.128906 8.011719 15.488281 8.269531 14.871094 C 8.523438 14.25 8.839844 13.664062 9.210938 13.105469 C 9.582031 12.546875 10.007812 12.03125 10.480469 11.558594 C 10.953125 11.085938 11.46875 10.660156 12.027344 10.289062 C 12.585938 9.917969 13.171875 9.601562 13.792969 9.347656 C 14.410156 9.089844 15.050781 8.894531 15.707031 8.765625 C 16.363281 8.632812 17.027344 8.570312 17.699219 8.570312 C 18.371094 8.570312 19.03125 8.632812 19.691406 8.765625 C 20.347656 8.894531 20.984375 9.089844 21.605469 9.347656 C 22.226562 9.601562 22.8125 9.917969 23.371094 10.289062 C 23.925781 10.660156 24.441406 11.085938 24.917969 11.558594 C 25.390625 12.03125 25.8125 12.546875 26.1875 13.105469 C 26.558594 13.664062 26.875 14.25 27.128906 14.871094 C 27.386719 15.488281 27.578125 16.128906 27.710938 16.785156 C 27.839844 17.441406 27.90625 18.105469 27.90625 18.777344 Z M 27.90625 18.777344 " fill-opacity="1" fill-rule="nonzero"/><path fill="#e18e29" d="M 27.347656 22.300781 C 26.714844 21.71875 26 21.273438 25.199219 20.964844 C 24.402344 20.652344 23.574219 20.496094 22.714844 20.496094 C 18.929688 20.496094 15.863281 23.566406 15.863281 27.347656 C 15.863281 27.917969 15.933594 28.480469 16.074219 29.035156 C 16.613281 29.121094 17.152344 29.164062 17.699219 29.164062 C 22.164062 29.164062 25.960938 26.296875 27.347656 22.300781 Z M 27.347656 22.300781 " fill-opacity="1" fill-rule="nonzero"/><path fill="#be1e2d" d="M 17.699219 17.085938 L 18.25 18.199219 L 19.480469 18.378906 L 18.589844 19.246094 L 18.800781 20.46875 L 17.699219 19.890625 L 16.597656 20.46875 L 16.808594 19.246094 L 15.917969 18.378906 L 17.148438 18.199219 Z M 17.699219 17.085938 " fill-opacity="1" fill-rule="nonzero"/><path fill="#ffffff" d="M 16.375 9.453125 C 16.339844 9.445312 16.285156 9.429688 16.25 9.441406 L 16.246094 9.441406 C 16.054688 9.296875 15.753906 9.375 15.535156 9.429688 C 15.335938 9.476562 15.140625 9.550781 14.949219 9.621094 C 14.574219 9.757812 14.203125 9.890625 13.832031 10.035156 C 13.445312 10.183594 13.054688 10.339844 12.695312 10.546875 C 12.367188 10.734375 12.066406 10.953125 11.789062 11.207031 C 11.265625 11.675781 10.828125 12.238281 10.433594 12.816406 C 10.339844 12.957031 10.28125 13.125 10.214844 13.277344 C 10.140625 13.457031 10.046875 13.640625 9.996094 13.828125 C 9.980469 13.902344 9.957031 13.976562 9.941406 14.050781 C 9.917969 14.164062 9.925781 14.277344 9.941406 14.390625 C 9.957031 14.480469 9.992188 14.582031 10.085938 14.621094 C 10.183594 14.664062 10.289062 14.621094 10.382812 14.582031 C 10.484375 14.539062 10.578125 14.480469 10.660156 14.40625 C 10.726562 14.34375 10.796875 14.285156 10.859375 14.21875 C 10.984375 14.078125 11.101562 13.9375 11.222656 13.796875 C 11.492188 13.5 11.699219 13.160156 11.9375 12.84375 C 12.265625 12.425781 12.636719 12.042969 13.054688 11.707031 C 13.53125 11.355469 14.0625 11.105469 14.605469 10.863281 C 14.914062 10.722656 15.226562 10.59375 15.53125 10.445312 C 15.683594 10.371094 15.835938 10.296875 15.980469 10.207031 C 16.152344 10.097656 16.34375 9.96875 16.378906 9.769531 C 16.378906 9.765625 16.382812 9.765625 16.382812 9.761719 C 16.414062 9.746094 16.441406 9.695312 16.460938 9.667969 C 16.511719 9.589844 16.464844 9.476562 16.375 9.453125 Z M 16.375 9.453125 " fill-opacity="1" fill-rule="nonzero"/><path fill="#ffffff" d="M 9.292969 16.824219 C 9.296875 16.8125 9.300781 16.800781 9.304688 16.789062 C 9.300781 16.800781 9.296875 16.8125 9.292969 16.824219 Z M 9.292969 16.824219 " fill-opacity="1" fill-rule="nonzero"/><path fill="#ffffff" d="M 9.683594 15.886719 C 9.703125 15.699219 9.515625 15.574219 9.351562 15.578125 C 9.296875 15.570312 9.242188 15.570312 9.183594 15.585938 C 9.113281 15.613281 9.050781 15.648438 8.996094 15.703125 C 8.957031 15.738281 8.921875 15.773438 8.886719 15.8125 C 8.796875 15.910156 8.722656 16.027344 8.65625 16.144531 C 8.496094 16.414062 8.253906 16.828125 8.542969 17.09375 C 8.769531 17.304688 9.101562 17.203125 9.238281 16.945312 C 9.242188 16.9375 9.273438 16.871094 9.292969 16.824219 C 9.289062 16.828125 9.289062 16.820312 9.304688 16.789062 C 9.304688 16.789062 9.304688 16.785156 9.304688 16.785156 C 9.304688 16.785156 9.304688 16.789062 9.304688 16.789062 C 9.324219 16.742188 9.347656 16.695312 9.371094 16.652344 C 9.421875 16.554688 9.480469 16.464844 9.539062 16.371094 C 9.566406 16.328125 9.589844 16.285156 9.613281 16.238281 C 9.644531 16.191406 9.675781 16.144531 9.6875 16.089844 C 9.691406 16.054688 9.695312 16.015625 9.703125 15.980469 C 9.699219 15.867188 9.691406 15.835938 9.683594 15.886719 Z M 9.683594 15.886719 " fill-opacity="1" fill-rule="nonzero"/><g clip-path="url(#0b006fcf20)"><g clip-path="url(#f809ac8848)"><g clip-path="url(#8fdc895e11)"><path fill="#ffeccf" d="M 5.703125 16.300781 L 5.691406 16.246094 C 5.398438 14.691406 5.421875 13.125 5.753906 11.59375 C 6.074219 10.113281 6.671875 8.726562 7.53125 7.46875 C 8.390625 6.214844 9.464844 5.152344 10.726562 4.3125 C 12.03125 3.445312 13.480469 2.855469 15.035156 2.5625 C 16.589844 2.269531 18.15625 2.292969 19.6875 2.625 C 21.167969 2.945312 22.554688 3.542969 23.8125 4.402344 C 25.070312 5.261719 26.128906 6.335938 26.96875 7.597656 C 27.835938 8.902344 28.425781 10.351562 28.71875 11.90625 L 28.726562 11.960938 Z M 5.703125 16.300781 " fill-opacity="1" fill-rule="nonzero"/></g></g></g><g clip-path="url(#851fc66ae6)"><g clip-path="url(#a303048338)"><g clip-path="url(#58806d1b1a)"><path fill="#ffd9a0" d="M 32.625 8.75 C 32.660156 8.96875 32.59375 9.203125 32.421875 9.453125 C 32.253906 9.699219 31.988281 9.957031 31.621094 10.222656 C 31.253906 10.488281 30.796875 10.757812 30.246094 11.03125 C 29.699219 11.304688 29.066406 11.578125 28.355469 11.851562 C 27.644531 12.121094 26.867188 12.386719 26.019531 12.644531 C 25.175781 12.902344 24.277344 13.152344 23.332031 13.386719 C 22.382812 13.621094 21.402344 13.84375 20.386719 14.046875 C 19.375 14.25 18.347656 14.433594 17.304688 14.597656 C 16.265625 14.761719 15.230469 14.902344 14.203125 15.019531 C 13.175781 15.136719 12.175781 15.230469 11.203125 15.296875 C 10.226562 15.367188 9.296875 15.40625 8.414062 15.421875 C 7.527344 15.433594 6.707031 15.421875 5.945312 15.382812 C 5.1875 15.34375 4.503906 15.277344 3.894531 15.183594 C 3.289062 15.09375 2.769531 14.976562 2.339844 14.835938 C 1.910156 14.695312 1.574219 14.535156 1.339844 14.351562 C 1.101562 14.167969 0.964844 13.964844 0.929688 13.746094 C 0.898438 13.523438 0.964844 13.292969 1.132812 13.042969 C 1.300781 12.796875 1.570312 12.539062 1.9375 12.273438 C 2.300781 12.007812 2.757812 11.738281 3.308594 11.464844 C 3.859375 11.1875 4.488281 10.917969 5.199219 10.644531 C 5.910156 10.375 6.6875 10.109375 7.535156 9.851562 C 8.382812 9.589844 9.277344 9.34375 10.226562 9.109375 C 11.175781 8.875 12.15625 8.652344 13.167969 8.449219 C 14.183594 8.246094 15.210938 8.0625 16.25 7.898438 C 17.289062 7.734375 18.324219 7.59375 19.351562 7.476562 C 20.378906 7.355469 21.378906 7.265625 22.355469 7.199219 C 23.328125 7.128906 24.257812 7.089844 25.144531 7.074219 C 26.027344 7.0625 26.851562 7.074219 27.609375 7.113281 C 28.371094 7.152344 29.054688 7.21875 29.660156 7.308594 C 30.269531 7.402344 30.785156 7.519531 31.21875 7.660156 C 31.648438 7.800781 31.980469 7.960938 32.21875 8.144531 C 32.453125 8.328125 32.589844 8.53125 32.625 8.75 Z M 32.625 8.75 " fill-opacity="1" fill-rule="nonzero"/></g></g></g><g clip-path="url(#a9f721e07c)"><g clip-path="url(#d69d13de61)"><g clip-path="url(#caa34a75d5)"><path fill="#fa747b" d="M 5.945312 14.742188 L 5.9375 14.6875 C 5.710938 13.183594 5.789062 11.675781 6.164062 10.214844 C 6.53125 8.804688 7.15625 7.488281 8.027344 6.3125 C 8.898438 5.136719 9.972656 4.152344 11.21875 3.394531 C 12.507812 2.605469 13.921875 2.09375 15.429688 1.867188 C 16.933594 1.644531 18.441406 1.722656 19.902344 2.097656 C 21.316406 2.460938 22.628906 3.085938 23.804688 3.960938 C 24.984375 4.832031 25.964844 5.902344 26.726562 7.148438 C 27.511719 8.4375 28.023438 9.855469 28.25 11.359375 L 28.257812 11.414062 Z M 5.945312 14.742188 " fill-opacity="1" fill-rule="nonzero"/></g></g></g><g clip-path="url(#ba3418b614)"><g clip-path="url(#e2b5665847)"><g clip-path="url(#adda698467)"><g transform="matrix(1, 0, 0, 1, 6, 7)"><g clip-path="url(#d352ef263f)"><g clip-path="url(#06003c869a)"><g clip-path="url(#02914cb0c3)"><g clip-path="url(#3426fb1e68)"><path fill="#ff6e76" d="M -0.167969 2.207031 L 20.851562 -0.964844 L 21.679688 4.527344 L 0.660156 7.699219 Z M -0.167969 2.207031 " fill-opacity="1" fill-rule="nonzero"/></g></g></g></g></g></g></g></g><g clip-path="url(#1e0977f603)"><g clip-path="url(#64fcdc9f61)"><g clip-path="url(#3b8aad2414)"><g transform="matrix(1, 0, 0, 1, 6, 4)"><g clip-path="url(#58035f0bd2)"><g clip-path="url(#9d0c441837)"><g clip-path="url(#19ab173fd4)"><g clip-path="url(#f519e797aa)"><path fill="#ffd9a0" d="M 0.5625 2.292969 L 18.980469 -0.484375 L 19.726562 4.46875 L 1.3125 7.246094 Z M 0.5625 2.292969 " fill-opacity="1" fill-rule="nonzero"/></g></g></g></g></g></g></g></g></g></g><g clip-path="url(#b6a768fb32)"><g transform="matrix(1, 0, 0, 1, 13, -0.000000000000008916)"><g clip-path="url(#3c2bb01e77)"><g clip-path="url(#3d0a5104a7)"><g mask="url(#3d0531137a)"><g transform="matrix(1, 0, 0, 1, -0.000000000000003553, -0.000000000000008916)"><g clip-path="url(#fc7f18704b)"><g clip-path="url(#0cdf8344fd)"><path fill="url(#6f210f7573)" d="M 0.886719 0 L 0.886719 77.058594 L 131 77.058594 L 131 0 Z M 0.886719 0 " fill-rule="nonzero"/></g></g></g></g></g></g></g></g></svg>